<svg id="SvgjsSvg1101" width="360" height="275" xmlns="http://www.w3.org/2000/svg" version="1.1" xmlns:xlink="http://www.w3.org/1999/xlink" xmlns:svgjs="http://svgjs.com/svgjs"><defs id="SvgjsDefs1102"><svg version="1.1" xmlns="http://www.w3.org/2000/svg" xmlns:xlink="http://www.w3.org/1999/xlink" xmlns:a="http://ns.adobe.com/AdobeSVGViewerExtensions/3.0/" x="0px" y="0px" width="120px" viewBox="0 0 200.50799560546875 200.50799560546875" style="enable-background:new 0 0 200.508 200.508;; fill:inherit;; fill:inherit;" xml:space="preserve" id="a1494817095898">
<defs style="undefined; fill:inherit;; fill:inherit;">
</defs>
<path d="M100.254,0C44.974,0,0,44.974,0,100.254s44.974,100.254,100.254,100.254c55.28,0,100.254-44.974,100.254-100.254
  S155.534,0,100.254,0z M100.254,195.508C47.731,195.508,5,152.777,5,100.254S47.731,5,100.254,5
  c52.523,0,95.254,42.73,95.254,95.254S152.777,195.508,100.254,195.508z" style="undefined; fill:inherit;; fill:inherit;"></path>
</svg><!--?xml version="1.0"?-->
<svg width="604.62818461539px" height="306.33846153846px" id="t1494817095898"><path fill="#ffffff" d="M83.537230769231,41.560615384616c0.6203076923077,0.88615384615385,0.88615384615385,2.0381538461539,0.79753846153846,3.1015384615385c0,0.88615384615385-0.35446153846154,1.8609230769231-0.97476923076923,2.8356923076923c-1.5064615384615,2.0381538461539-4.6966153846154,3.8990769230769-9.3932307692308,4.1649230769231c-2.6584615384615,0.17723076923077-5.1396923076923,0-7.6209230769231-0.44307692307692c-4.6966153846154,4.5193846153846-10.279384615385,10.545230769231-15.773538461539,16.482461538462c2.7470769230769-0.6203076923077,5.2283076923077-0.79753846153846,7.355076923077-0.44307692307692c1.5950769230769,0.26584615384616,3.0129230769231,0.70892307692308,4.1649230769231,1.4178461538462c2.5698461538462,1.5950769230769,4.0763076923077,4.0763076923077,4.2535384615385,7.1778461538462c0.17723076923077,2.7470769230769-0.44307692307692,6.0258461538462-1.9495384615385,9.659076923077c-0.88615384615385,1.8609230769231-1.9495384615385,3.8990769230769-3.1901538461539,5.8486153846154c5.4941538461539-3.5446153846154,10.988307692308-8.3298461538462,16.216615384615-14.710153846154c0.79753846153846-1.0633846153846,2.2153846153846-1.2406153846154,3.2787692307692-0.35446153846154c0.97476923076923,0.79753846153846,1.152,2.2153846153846,0.35446153846154,3.2787692307692c-8.4184615384616,10.368-17.457230769231,16.659692307692-26.230153846154,20.824615384615c-0.88615384615385,1.152-1.6836923076923,2.2153846153846-2.6584615384615,3.2787692307692c-7.0006153846154,7.9753846153846-13.912615384615,13.646769230769-20.292923076923,17.368615384615c-7.7981538461539,4.5193846153846-14.887384615385,6.3803076923077-20.647384615385,6.3803076923077c-3.0129230769231,0-5.4055384615385-0.79753846153846-6.912-2.1267692307692c-1.152-0.97476923076923-1.8609230769231-2.3926153846154-2.0381538461539-3.8990769230769c-0.17723076923077-1.3292307692308,0.17723076923077-2.8356923076923,0.97476923076923-4.3421538461539c1.4178461538462-2.6584615384615,4.608-5.5827692307693,9.7476923076924-7.8867692307693c4.8738461538462-2.2153846153846,10.456615384615-3.6332307692308,16.571076923077-5.2283076923077c7.0006153846154-1.8609230769231,14.710153846154-3.8104615384616,22.419692307692-7.4436923076923c3.6332307692308-4.5193846153846,6.3803076923077-8.9501538461539,8.064-12.849230769231c1.152-2.9243076923077,1.7723076923077-5.4055384615385,1.6836923076923-7.4436923076923c-0.088615384615385-1.5950769230769-0.79753846153846-2.7470769230769-2.0381538461539-3.456c-0.70892307692308-0.44307692307692-1.5064615384615-0.70892307692308-2.5698461538462-0.88615384615385c-3.3673846153846-0.53169230769231-8.3298461538462,0.79753846153846-13.115076923077,3.1901538461539c-0.44307692307692,0.35446153846154-0.70892307692308,0.79753846153846-1.0633846153846,1.152c-8.6843076923077,9.659076923077-15.773538461539,17.457230769231-18.432,16.748307692308c-1.5950769230769-0.53169230769231-2.304-1.8609230769231-1.5064615384615-4.1649230769231c1.5064615384615-5.4055384615385,7.4436923076923-11.165538461539,14.178461538462-15.330461538462c1.2406153846154-0.79753846153846,2.5698461538462-1.5064615384615,3.9876923076923-2.2153846153846c6.2916923076923-7.0892307692308,13.292307692308-14.976,19.761230769231-21.090461538462c-3.1901538461539-0.88615384615385-6.3803076923077-2.0381538461539-9.3046153846154-3.1015384615385c-5.3169230769231-1.7723076923077-10.102153846154-3.456-14.089846153846-3.456c-2.9243076923077,0-4.6966153846154,0.97476923076923-5.4941538461539,2.0381538461539c-0.35446153846154,0.53169230769231-0.6203076923077,0.97476923076923-0.70892307692308,1.4178461538462c0,0.53169230769231,0,0.97476923076923,0.17723076923077,1.4178461538462c0.44307692307692,0.88615384615385,1.3292307692308,1.6836923076923,2.4812307692308,1.8609230769231c1.4178461538462,0.26584615384616,2.2153846153846,1.5950769230769,1.9495384615385,2.7470769230769c-0.35446153846154,1.2406153846154-1.5064615384615,2.2153846153846-2.8356923076923,1.8609230769231c-2.9243076923077-0.6203076923077-4.9624615384616-2.4812307692308-5.9372307692308-4.608c-0.35446153846154-1.3292307692308-0.6203076923077-2.5698461538462-0.35446153846154-3.8104615384616c0.088615384615385-1.3292307692308,0.53169230769231-2.5698461538462,1.3292307692308-3.6332307692308c1.6836923076923-2.304,4.7852307692308-3.9876923076923,9.3932307692308-3.9876923076923c4.8738461538462,0,10.013538461539,1.7723076923077,15.596307692308,3.8104615384616c3.8104615384616,1.2406153846154,7.8867692307693,2.6584615384615,11.963076923077,3.5446153846154c5.0510769230769-4.4307692307692,9.3932307692308-7.4436923076923,12.140307692308-7.4436923076923c3.1015384615385,0,5.2283076923077,1.152,6.2916923076923,2.7470769230769z M29.481846153846,117.06092307692c4.8738461538462-2.9243076923077,10.190769230769-7.0006153846154,15.596307692308-12.672c-4.9624615384616,1.6836923076923-9.8363076923077,2.9243076923077-14.355692307692,4.0763076923077c-5.9372307692308,1.5064615384615-11.165538461539,2.8356923076923-15.684923076923,4.9624615384616c-4.2535384615385,1.8609230769231-6.6461538461539,3.9876923076923-7.7095384615385,5.8486153846154c-0.26584615384616,0.6203076923077-0.44307692307692,1.152-0.35446153846154,1.5950769230769c0,0.35446153846154,0.17723076923077,0.6203076923077,0.44307692307692,0.88615384615385c0.70892307692308,0.6203076923077,2.0381538461539,0.97476923076923,3.8104615384616,0.97476923076923c5.0510769230769,0,11.342769230769-1.6836923076923,18.254769230769-5.6713846153846z M79.460923076923,44.839384615385c0.17723076923077-0.17723076923077,0.17723076923077-0.35446153846154,0.26584615384616-0.44307692307692l-0.088615384615385-0.088615384615385c-0.26584615384616-0.53169230769231-0.97476923076923-0.70892307692308-2.3926153846154-0.70892307692308c-1.3292307692308,0-3.456,1.2406153846154-6.1144615384616,3.456c0.79753846153846,0,1.6836923076923,0,2.5698461538462-0.088615384615385c3.1901538461539-0.17723076923077,4.9624615384616-1.152,5.76-2.1267692307692z M138.33255384615,76.209230769231c0.97476923076923,0.70892307692308,1.2406153846154,2.1267692307692,0.44307692307692,3.1015384615385c-0.26584615384616,0.44307692307692-0.79753846153846,1.3292307692308-1.6836923076923,2.6584615384615c-5.4055384615385,7.5323076923077-17.191384615385,24.280615384615-22.153846153846,24.369230769231c-7.0892307692308,0.26584615384616-9.1273846153847-6.7347692307693-11.431384615385-14.089846153846c-1.3292307692308-4.3421538461539-2.6584615384615-8.8615384615385-5.0510769230769-11.697230769231c-0.70892307692308,0-1.5064615384615,0.088615384615385-2.2153846153846,0.088615384615385c-7.8867692307693,13.380923076923-16.836923076923,25.964307692308-25.078153846154,25.698461538462c-3.9876923076923-0.17723076923077-6.4689230769231-1.8609230769231-7.4436923076923-4.9624615384616c-0.97476923076923-2.6584615384615-0.6203076923077-6.3803076923077,0.6203076923077-10.456615384615c1.152-3.7218461538462,3.2787692307692-8.064,5.8486153846154-12.583384615385c9.659076923077-16.216615384615,27.559384615385-34.914461538462,42.801230769231-38.902153846154c0.79753846153846-1.4178461538462,1.5064615384615-2.8356923076923,2.4812307692308-4.6966153846154c0.53169230769231-1.152,1.9495384615385-1.5950769230769,3.1015384615385-0.97476923076923c1.0633846153846,0.53169230769231,1.5064615384615,1.8609230769231,0.97476923076923,3.0129230769231l-0.88615384615385,1.9495384615385l0,0c1.6836923076923,0,3.2787692307692,0.17723076923077,4.7852307692308,0.6203076923077c3.3673846153846,0.97476923076923,6.1144615384616,3.0129230769231,7.9753846153846,5.5827692307693c1.8609230769231,2.4812307692308,2.8356923076923,5.6713846153846,2.8356923076923,8.9501538461539c0,1.5064615384615-0.17723076923077,3.0129230769231-0.6203076923077,4.5193846153846c-2.2153846153846,7.6209230769231-7.4436923076923,13.026461538462-14.178461538462,16.482461538462c-4.6966153846154,2.5698461538462-10.190769230769,4.1649230769231-15.773538461539,5.0510769230769c1.9495384615385,3.1901538461539,3.1901538461539,7.0892307692308,4.2535384615385,10.899692307692c1.7723076923077,5.76,3.2787692307692,11.076923076923,6.8233846153846,10.899692307692c2.7470769230769,0,13.558153846154-15.507692307692,18.520615384615-22.508307692308c0.79753846153846-0.97476923076923,1.2406153846154-1.7723076923077,1.8609230769231-2.4812307692308c0.70892307692308-1.152,2.2153846153846-1.2406153846154,3.1901538461539-0.53169230769231z M95.265476923077,73.284923076923c1.7723076923077-3.2787692307692,3.5446153846154-6.4689230769231,5.1396923076923-9.4818461538462c2.304-4.0763076923077,6.203076923077-11.785846153846,9.659076923077-18.520615384615c-12.937846153846,5.4055384615385-27.559384615385,21.444923076923-35.889230769231,35.446153846154c-2.4812307692308,4.2535384615385-4.4307692307692,8.2412307692308-5.4941538461539,11.608615384615c-0.97476923076923,3.1901538461539-1.2406153846154,5.8486153846154-0.6203076923077,7.6209230769231c0.35446153846154,1.0633846153846,1.3292307692308,1.6836923076923,3.1901538461539,1.8609230769231c5.76,0.088615384615385,12.937846153846-9.8363076923077,19.761230769231-21.179076923077c-0.79753846153846-0.17723076923077-1.5950769230769-0.35446153846154-2.2153846153846-0.53169230769231c-1.7723076923077-0.79753846153846-2.7470769230769-2.2153846153846-2.8356923076923-3.1901538461539c-0.088615384615385-0.35446153846154,0-0.6203076923077,0.088615384615385-0.88615384615385c0.17723076923077-1.6836923076923,1.3292307692308-2.4812307692308,3.0129230769231-2.8356923076923c1.0633846153846-0.17723076923077,2.3926153846154-0.17723076923077,3.3673846153846-0.17723076923077s1.9495384615385,0.088615384615385,2.8356923076923,0.26584615384616z M100.31655384615,75.766153846154c5.9372307692308-0.70892307692308,11.963076923077-2.2153846153846,17.014153846154-4.8738461538462c5.5827692307693-3.0129230769231,10.013538461539-7.4436923076923,11.963076923077-13.735384615385c0.26584615384616-1.152,0.44307692307692-2.304,0.44307692307692-3.2787692307692c0-2.304-0.70892307692308-4.5193846153846-2.0381538461539-6.2916923076923c-1.2406153846154-1.7723076923077-3.1901538461539-3.1901538461539-5.4941538461539-3.8990769230769c-1.152-0.26584615384616-2.304-0.44307692307692-3.5446153846154-0.44307692307692c-0.88615384615385,0-1.6836923076923,0.088615384615385-2.4812307692308,0.17723076923077c-3.8990769230769,7.6209230769231-9.0387692307693,17.634461538462-11.697230769231,22.596923076923c0,0-0.088615384615385,0-0.088615384615385,0.088615384615385l0,0l0,0c-1.5064615384615,2.9243076923077-3.1901538461539,5.9372307692308-4.8738461538462,8.9501538461539c0.17723076923077,0.17723076923077,0.53169230769231,0.44307692307692,0.79753846153846,0.70892307692308z"></path></svg>
</defs><use id="SvgjsUse1103" xlink:href="#t1494817095898" fill="#ffffff" x="109.163578748703" y="56.71445083618164"></use><use id="SvgjsUse1104" xlink:href="#a1494817095898" fill="#ffffff" x="120" y="0" transform="matrix(1.718418502807617,0,0,1.718418502807617,-129.3153305053711,-98.78254413604736)"></use></svg>